# xmcd
# 
# Track frame offsets:
#     150
#     20322
#     38585
#     60460
#     74455
#     93260
#     111290
#     126767
#     178080
# 
# Disc length: 2554
# 
# Revision: 11
# Processed by: cddbd v1.5.2PL0 Copyright (c) Steve Scherf et al.
# Submitted via: fre:ac v1.0.31
# 
DISCID=7109f809
DTITLE=Charlie Daniels - Fire On The Mountain
DYEAR=1974
DGENRE=Rock/Pop
TTITLE0=Caballo Diablo
TTITLE1=Long Haired Country Boy
TTITLE2=Trudy
TTITLE3=Georgia
TTITLE4=Feeling Free
TTITLE5=The South's Gonna Do It Again
TTITLE6=New York City, King Size Rosewood Bed
TTITLE7=No Place To Go
TTITLE8=Orange Blossom Special
EXTD=
EXTT0=
EXTT1=
EXTT2=
EXTT3=
EXTT4=
EXTT5=
EXTT6=
EXTT7=
EXTT8=
PLAYORDER=
